<?xml version="1.0" encoding="UTF-8"?>
<svg width="772px" height="295px" viewBox="0 0 772 295" version="1.1" xmlns="http://www.w3.org/2000/svg" xmlns:xlink="http://www.w3.org/1999/xlink">
    <title>w3f</title>
    <g id="页面-1" stroke="none" stroke-width="1" fill="none" fill-rule="evenodd">
        <g id="w3f">
            <rect id="矩形" fill="#146D2E" x="0" y="0" width="772" height="295"></rect>
            <g id="web3-foundation-grants" transform="translate(212.000000, 88.000000)" fill="#D8D8D8" fill-rule="nonzero">
                <path d="M59.5201093,38.61 L59.5201093,29.81 C59.5227682,26.6174606 57.5941905,23.7404022 54.64,22.53 L-2.84217094e-14,-1.42108547e-14 L-2.84217094e-14,4.88 L48.67,24.88 C49.6943983,25.3245225 50.1745725,26.5071736 49.75,27.54 C49.5558704,28.0345357 49.1645357,28.4258704 48.67,28.62 L-2.84217094e-14,48.74 L-2.84217094e-14,68.37 L29.33,56.27 L48.61,64.22 C49.1088696,64.42308 49.5047403,64.8187923 49.70802,65.3175805 C49.9112998,65.8163688 49.904803,66.3760647 49.69,66.87 C49.4958704,67.3645357 49.1045357,67.7558704 48.61,67.95 L-2.84217094e-14,88.01 L-2.84217094e-14,119.01 L54.57,96.54 C57.5241905,95.3295978 59.4527682,92.4525394 59.45,89.26 L59.45,69.09 C59.4541037,65.8946473 57.5257616,63.0139888 54.57,61.8 L35.24,53.8 L54.57,45.85 C57.5656133,44.7015838 59.5370172,41.8181567 59.5201093,38.61 Z" id="路径"></path>
                <path d="M104.52,7.26 C105.093569,6.25955368 106.18983,5.67643651 107.34,5.76 C109.34,5.76 111.02,7.41 111.02,10.24 C111.02,13.07 109.31,14.72 107.34,14.72 C106.18983,14.8035635 105.093569,14.2204463 104.52,13.22 L104.52,17.32 L103.07,17.32 L103.07,5.9 L104.52,5.9 L104.52,7.26 Z M109.44,10.26 C109.44,8.26 108.44,7.03 106.97,7.03 C105.68,7.03 104.46,8.03 104.46,10.26 C104.46,12.49 105.68,13.49 106.97,13.49 C108.52,13.47 109.46,12.29 109.46,10.24 L109.44,10.26 Z" id="形状"></path>
                <path d="M116.13,7.36 C114.79,7.36 114.13,8.11 114.13,10 L114.13,14.54 L112.67,14.54 L112.67,5.9 L114.09,5.9 L114.09,7.41 C114.515414,6.4523808 115.472294,5.8420251 116.52,5.86 L116.95,5.86 L116.95,7.41 C116.65,7.39 116.37,7.36 116.13,7.36 Z" id="路径"></path>
                <path d="M121.7,14.72 C119.7,14.72 117.58,13.36 117.58,10.24 C117.58,7.12 119.7,5.76 121.7,5.76 C123.7,5.76 125.83,7.12 125.83,10.24 C125.83,13.36 123.71,14.72 121.7,14.72 Z M124.28,10.24 C124.28,7.95 123.02,7.04 121.7,7.04 C120.38,7.04 119.13,7.89 119.13,10.24 C119.13,12.59 120.39,13.44 121.7,13.44 C123.01,13.44 124.28,12.45 124.28,10.24 Z" id="形状"></path>
                <path d="M128.86,5.9 L128.86,14.9 C128.86,16.69 128.49,17.27 126.86,17.27 L126.12,17.27 L126.12,16.05 L126.52,16.05 C127.27,16.05 127.41,15.83 127.41,14.93 L127.41,5.9 L128.86,5.9 Z M128.86,4.67 L127.4,4.67 L127.4,2.91 L128.86,2.91 L128.86,4.67 Z" id="形状"></path>
                <path d="M134.68,13.44 C135.690934,13.5374304 136.6461,12.9602666 137.03,12.02 L138.52,12.02 C138.026394,13.7143269 136.420856,14.8373718 134.66,14.72 C131.94,14.72 130.44,12.72 130.44,10.23 C130.347241,9.0708011 130.746297,7.92603812 131.539564,7.07570111 C132.332832,6.22536409 133.447159,5.74786783 134.61,5.76 C137.24,5.76 138.82,7.97 138.61,10.69 L132.02,10.69 C131.992738,11.4117242 132.261235,12.1133077 132.763369,12.6324319 C133.265504,13.151556 133.957768,13.4432401 134.68,13.44 L134.68,13.44 Z M137.11,9.44 C137.025903,8.10168907 135.915951,7.05929532 134.575,7.05929532 C133.234049,7.05929532 132.124097,8.10168907 132.04,9.44 L137.11,9.44 Z" id="形状"></path>
                <path d="M146.04,8.78 C145.81377,7.73797425 144.875761,7.00607502 143.81,7.04 C142.52,7.04 141.33,8.04 141.33,10.21 C141.33,12.38 142.53,13.44 143.81,13.44 C144.886059,13.4763656 145.840891,12.7550299 146.1,11.71 L147.61,11.71 C147.209706,13.4980988 145.601822,14.7542582 143.77,14.71 C141.3,14.71 139.77,12.84 139.77,10.22 C139.77,7.6 141.39,5.75 143.93,5.75 C145.708715,5.71660983 147.242091,6.99442272 147.53,8.75 L146.04,8.78 Z" id="路径"></path>
                <path d="M150.99,3.74 L150.99,5.9 L152.62,5.9 L152.62,7.07 L150.99,7.07 L150.99,12.18 C150.99,13.07 151.06,13.3 151.89,13.3 L152.62,13.3 L152.62,14.54 L151.57,14.54 C149.92,14.54 149.57,14.18 149.57,12.38 L149.57,7.07 L148.21,7.07 L148.21,5.9 L149.52,5.9 L149.52,3.74 L150.99,3.74 Z" id="路径"></path>
                <path d="M160.95,6.99 C160.1,6.99 159.14,7.3 159.14,8.08 C159.14,8.86 159.62,9.08 160.45,9.25 L161.67,9.49 C163.23,9.79 164.61,10.38 164.61,12.05 C164.61,13.72 163.07,14.72 161.11,14.72 C159.276667,14.8581022 157.653828,13.5422866 157.41,11.72 L158.94,11.72 C159.065564,12.8112822 160.047772,13.5970482 161.14,13.48 C162.24,13.48 163.14,13 163.14,12.2 C163.14,11.4 162.32,10.97 161.39,10.78 L160.11,10.52 C158.94,10.28 157.66,9.73 157.66,8.13 C157.66,6.53 159.2,5.73 161.11,5.73 C162.77888,5.58481003 164.272648,6.76317863 164.52,8.42 L163,8.42 C162.794947,7.48113334 161.901916,6.85818945 160.95,6.99 Z" id="路径"></path>
                <path d="M168.92,14.72 C166.92,14.72 166.17,13.38 166.17,11.41 L166.17,5.9 L167.62,5.9 L167.62,10.98 C167.62,12.31 167.85,13.46 169.43,13.46 C170.81,13.46 171.62,12.46 171.62,10.64 L171.62,5.9 L173.08,5.9 L173.08,14.54 L171.62,14.54 L171.62,13.31 C171.06252,14.2564229 170.015242,14.8033346 168.92,14.72 L168.92,14.72 Z" id="路径"></path>
                <path d="M176.65,7.26 C177.223569,6.25955368 178.31983,5.67643651 179.47,5.76 C181.47,5.76 183.15,7.41 183.15,10.24 C183.15,13.07 181.43,14.72 179.47,14.72 C178.31983,14.8035635 177.223569,14.2204463 176.65,13.22 L176.65,17.32 L175.19,17.32 L175.19,5.9 L176.65,5.9 L176.65,7.26 Z M181.56,10.26 C181.56,8.26 180.56,7.03 179.1,7.03 C177.8,7.03 176.58,8.03 176.58,10.26 C176.58,12.49 177.8,13.49 179.1,13.49 C180.59,13.47 181.52,12.29 181.52,10.24 L181.56,10.26 Z" id="形状"></path>
                <path d="M186.22,7.26 C186.793569,6.25955368 187.88983,5.67643651 189.04,5.76 C191.04,5.76 192.72,7.41 192.72,10.24 C192.72,13.07 191.01,14.72 189.04,14.72 C187.88983,14.8035635 186.793569,14.2204463 186.22,13.22 L186.22,17.32 L184.76,17.32 L184.76,5.9 L186.22,5.9 L186.22,7.26 Z M191.13,10.26 C191.13,8.26 190.13,7.03 188.67,7.03 C187.37,7.03 186.16,8.03 186.16,10.26 C186.16,12.49 187.37,13.49 188.67,13.49 C190.16,13.47 191.13,12.29 191.13,10.24 L191.13,10.26 Z" id="形状"></path>
                <path d="M197.97,14.72 C195.97,14.72 193.84,13.36 193.84,10.24 C193.84,7.12 195.96,5.76 197.97,5.76 C200.455281,5.76 202.47,7.77471863 202.47,10.26 C202.47,12.7452814 200.455281,14.76 197.97,14.76 L197.97,14.72 Z M200.52,10.24 C200.52,7.95 199.26,7.04 197.95,7.04 C196.64,7.04 195.37,7.89 195.37,10.24 C195.37,12.59 196.63,13.44 197.95,13.44 C199.27,13.44 200.52,12.45 200.52,10.24 Z" id="形状"></path>
                <path d="M207.19,7.36 C205.85,7.36 205.19,8.11 205.19,10 L205.19,14.54 L203.72,14.54 L203.72,5.9 L205.15,5.9 L205.15,7.41 C205.568987,6.4468729 206.530009,5.83387575 207.58,5.86 L208.01,5.86 L208.01,7.41 C207.71,7.39 207.43,7.36 207.19,7.36 Z" id="路径"></path>
                <path d="M211.58,3.74 L211.58,5.9 L213.22,5.9 L213.22,7.07 L211.58,7.07 L211.58,12.18 C211.58,13.07 211.65,13.3 212.48,13.3 L213.22,13.3 L213.22,14.54 L212.16,14.54 C210.51,14.54 210.16,14.18 210.16,12.38 L210.16,7.07 L208.8,7.07 L208.8,5.9 L210.16,5.9 L210.16,3.74 L211.58,3.74 Z" id="路径"></path>
                <path d="M218.12,13.44 C219.132929,13.5353443 220.089794,12.9596033 220.48,12.02 L221.98,12.02 C221.486394,13.7143269 219.880856,14.8373718 218.12,14.72 C215.4,14.72 213.9,12.72 213.9,10.23 C213.810211,9.06980346 214.211653,7.92520978 215.006456,7.07526493 C215.801259,6.22532008 216.916395,5.7481187 218.08,5.76 C220.7,5.76 222.29,7.97 222.08,10.69 L215.52,10.69 C215.4874,11.4028895 215.745899,12.0984211 216.236174,12.6169812 C216.726449,13.1355412 217.406404,13.4326047 218.12,13.44 L218.12,13.44 Z M220.56,9.44 C220.56,8.03719674 219.422803,6.9 218.02,6.9 C216.617197,6.9 215.48,8.03719674 215.48,9.44 L220.56,9.44 Z" id="形状"></path>
                <path d="M231.15,2.91 L231.15,14.54 L229.69,14.54 L229.69,13.25 C229.116431,14.2504463 228.02017,14.8335635 226.87,14.75 C224.87,14.75 223.19,13.12 223.19,10.27 C223.19,7.42 224.9,5.79 226.87,5.79 C228.02017,5.70643651 229.116431,6.28955368 229.69,7.29 L229.69,2.91 L231.15,2.91 Z M224.78,10.24 C224.78,12.24 225.78,13.47 227.24,13.47 C228.54,13.47 229.75,12.47 229.75,10.24 C229.75,8.01 228.54,7.01 227.24,7.01 C225.75,7.01 224.78,8.19 224.78,10.24 Z" id="形状"></path>
                <path d="M238.63,7.26 C239.203569,6.25955368 240.29983,5.67643651 241.45,5.76 C243.45,5.76 245.13,7.41 245.13,10.24 C245.13,13.07 243.42,14.72 241.45,14.72 C240.29983,14.8035635 239.203569,14.2204463 238.63,13.22 L238.63,14.54 L237.17,14.54 L237.17,2.91 L238.63,2.91 L238.63,7.26 Z M243.55,10.26 C243.55,8.26 242.55,7.03 241.08,7.03 C239.78,7.03 238.57,8.03 238.57,10.26 C238.57,12.49 239.78,13.49 241.08,13.49 C242.57,13.47 243.52,12.29 243.52,10.24 L243.55,10.26 Z" id="形状"></path>
                <path d="M249.78,14.88 C249.16,16.76 248.71,17.32 246.78,17.32 L246.02,17.32 L246.02,16.1 L246.62,16.1 C247.62,16.1 248.04,16.04 248.42,14.69 L248.52,14.54 L245.41,5.93 L247.03,5.93 L249.22,12.58 L251.35,5.93 L252.87,5.93 L249.78,14.88 Z" id="路径"></path>
                <polygon id="路径" points="115.37 35.26 118.9 48.39 122.3 35.26 125.52 35.26 120.41 53.02 117.67 53.02 113.74 38.72 109.95 53.02 107.22 53.02 102.1 35.26 105.33 35.26 108.73 48.39 112.27 35.26"></polygon>
                <path d="M134.95,50.8 C137.03446,50.9934086 139.001431,49.8051144 139.8,47.87 L142.9,47.87 C142.08,50.94 139.27,53.44 134.95,53.44 C129.34,53.44 126.24,49.44 126.24,44.17 C126.24,38.56 130,34.96 134.85,34.96 C140.26,34.96 143.53,39.52 143.13,45.13 L129.52,45.13 C129.460215,46.6096922 130.005148,48.050004 131.029421,49.1195492 C132.053694,50.1890944 133.469107,50.7957728 134.95,50.8 Z M139.95,42.55 C139.689549,39.8666375 137.435505,37.818811 134.739534,37.8162237 C132.043562,37.8136414 129.785596,39.8571419 129.52,42.54 L139.95,42.55 Z" id="形状"></path>
                <path d="M149.24,38.06 C150.432774,36.0092011 152.682373,34.8088987 155.05,34.96 C159.11,34.96 162.64,38.36 162.64,44.2 C162.64,50.04 159.11,53.44 155.05,53.44 C152.682373,53.5911013 150.432774,52.3907989 149.24,50.34 L149.24,53.02 L146.24,53.02 L146.24,29.09 L149.24,29.09 L149.24,38.06 Z M159.37,44.2 C159.37,39.98 157.37,37.54 154.29,37.54 C151.62,37.54 149.11,39.54 149.11,44.2 C149.11,48.86 151.62,50.87 154.29,50.87 C157.36,50.87 159.37,48.43 159.37,44.2 Z" id="形状"></path>
                <path d="M171.76,41.76 L171.26,41.76 L171.26,39.02 L171.66,39.02 C175.82,39.02 178.03,37.87 178.03,35.02 C178.03,32.45 175.92,31.13 173.37,31.13 C172.055274,31.0254696 170.754985,31.4631096 169.771019,32.3413133 C168.787053,33.2195171 168.205002,34.4618932 168.16,35.78 L165.06,35.78 C165.42,31.56 168.42,28.62 173.44,28.62 C177.6,28.62 181.2,30.27 181.2,34.69 C181.202684,37.1780266 179.641723,39.3993944 177.3,40.24 C180.87,41.36 181.86,43.73 181.86,46.24 C181.86,51.06 177.76,53.4 173.21,53.4 C167.6,53.4 165.02,49.91 164.69,45.91 L167.8,45.91 C168.13,48.85 169.87,50.91 173.24,50.91 C176.41,50.91 178.65,49.26 178.65,46.29 C178.65,42.88 175.58,41.76 171.76,41.76 Z" id="路径"></path>
                <path d="M198.92,29.09 L200.52,29.09 L200.52,31.6 L199.03,31.6 C197.45,31.6 197.18,31.96 197.18,33.81 L197.18,35.26 L200.52,35.26 L200.52,37.67 L197.18,37.67 L197.18,53.02 L194.18,53.02 L194.18,37.67 L191.7,37.67 L191.7,35.26 L194.18,35.26 L194.18,33.97 C194.13,30.28 194.89,29.09 198.92,29.09 Z" id="路径"></path>
                <path d="M210.05,53.44 C205.93,53.44 201.54,50.64 201.54,44.2 C201.54,37.76 205.93,34.96 210.05,34.96 C214.17,34.96 218.57,37.77 218.57,44.2 C218.57,50.63 214.18,53.44 210.05,53.44 Z M215.37,44.2 C215.37,39.48 212.76,37.6 210.05,37.6 C207.34,37.6 204.74,39.35 204.74,44.2 C204.74,49.05 207.35,50.8 210.05,50.8 C212.75,50.8 215.37,48.76 215.37,44.2 L215.37,44.2 Z" id="形状"></path>
                <path d="M227.25,53.44 C223.13,53.44 221.58,50.67 221.58,46.61 L221.58,35.26 L224.58,35.26 L224.58,45.72 C224.58,48.46 225.04,50.84 228.31,50.84 C231.15,50.84 232.83,48.84 232.83,45.03 L232.83,35.26 L235.83,35.26 L235.83,53.02 L232.83,53.02 L232.83,50.47 C231.684576,52.4389543 229.522979,53.5894821 227.25,53.44 Z" id="路径"></path>
                <path d="M248.76,34.96 C253.06,34.96 254.61,37.73 254.61,41.79 L254.61,53.02 L251.61,53.02 L251.61,42.68 C251.61,39.95 251.15,37.57 247.72,37.57 C244.81,37.57 243.03,39.57 243.03,43.38 L243.03,53.02 L240.03,53.02 L240.03,35.26 L243.03,35.26 L243.03,37.93 C244.230303,35.9420796 246.443694,34.7948243 248.76,34.96 L248.76,34.96 Z" id="路径"></path>
                <path d="M273.98,29.09 L273.98,53.02 L270.98,53.02 L270.98,50.34 C269.787226,52.3907989 267.537627,53.5911013 265.17,53.44 C261.11,53.44 257.58,50.08 257.58,44.2 C257.58,38.32 261.11,34.96 265.17,34.96 C267.537627,34.8088987 269.787226,36.0092011 270.98,38.06 L270.98,29.06 L273.98,29.09 Z M260.85,44.2 C260.85,48.43 262.85,50.87 265.93,50.87 C268.6,50.87 271.11,48.87 271.11,44.2 C271.11,39.53 268.6,37.54 265.93,37.54 C262.86,37.54 260.85,39.98 260.85,44.2 Z" id="形状"></path>
                <path d="M289.12,42.09 L289.12,41.66 C289.12,38.43 287.3,37.34 285.12,37.34 C282.65,37.34 281.2,38.69 281.06,40.87 L277.96,40.87 C278.26,37.04 281.62,34.87 285.09,34.87 C289.98,34.87 292.19,37.21 292.15,42.19 L292.15,46.29 C292.075579,48.5331566 292.229707,50.7780626 292.61,52.99 L289.61,52.99 C289.479336,52.1793057 289.402501,51.3608484 289.38,50.54 C288.29,52.36 286.44,53.41 283.3,53.41 C279.97,53.41 277.2,51.57 277.2,48.3 C277.11,44.14 281.83,42.92 289.12,42.09 Z M280.44,48.26 C280.44,49.95 281.73,51.07 283.87,51.07 C286.68,51.07 289.35,49.78 289.35,45.59 L289.35,44.47 C283.91,45.03 280.44,45.82 280.44,48.26 Z" id="形状"></path>
                <path d="M299.8,30.8 L299.8,35.26 L303.17,35.26 L303.17,37.67 L299.8,37.67 L299.8,48.2 C299.8,50.05 299.94,50.51 301.65,50.51 L303.17,50.51 L303.17,53.02 L300.99,53.02 C297.59,53.02 296.8,52.26 296.8,48.56 L296.8,37.67 L294,37.67 L294,35.26 L296.8,35.26 L296.8,30.8 L299.8,30.8 Z" id="路径"></path>
                <path d="M309.04,32.72 L306.04,32.72 L306.04,29.09 L309.04,29.09 L309.04,32.72 Z M309.04,53.02 L306.04,53.02 L306.04,35.26 L309.04,35.26 L309.04,53.02 Z" id="形状"></path>
                <path d="M320.75,53.44 C316.62,53.44 312.23,50.64 312.23,44.2 C312.23,37.76 316.62,34.96 320.75,34.96 C324.88,34.96 329.26,37.77 329.26,44.2 C329.26,50.63 324.87,53.44 320.75,53.44 Z M326.06,44.2 C326.06,39.48 323.45,37.6 320.75,37.6 C318.05,37.6 315.43,39.35 315.43,44.2 C315.43,49.05 318.04,50.8 320.75,50.8 C323.46,50.8 326.06,48.76 326.06,44.2 Z" id="形状"></path>
                <path d="M341.2,34.96 C345.49,34.96 347.04,37.73 347.04,41.79 L347.04,53.02 L344.04,53.02 L344.04,42.68 C344.04,39.95 343.58,37.57 340.14,37.57 C337.24,37.57 335.46,39.57 335.46,43.38 L335.46,53.02 L332.46,53.02 L332.46,35.26 L335.46,35.26 L335.46,37.93 C336.66198,35.9387143 338.880216,34.790951 341.2,34.96 Z" id="路径"></path>
                <path d="M119.26,72.02 L119.26,87.4 C119.26,91.03 118.6,92.52 117.58,93.64 C115.962882,95.2633051 113.727332,96.1152901 111.44,95.98 C107.44,95.98 104.71,94.13 104.15,90.54 L107.35,90.54 C107.74,92.12 108.7,93.34 111.47,93.34 C112.812888,93.4378971 114.133662,92.9576158 115.1,92.02 C115.76,91.33 116.26,90.5 116.26,88.09 L116.26,86.41 C115.131866,88.4378975 112.935494,89.6334404 110.62,89.48 C106.69,89.48 103.09,86.31 103.09,80.6 C103.09,74.89 106.69,71.72 110.62,71.72 C112.944238,71.5742838 115.142857,72.7866432 116.26,74.83 L116.26,72.02 L119.26,72.02 Z M106.36,80.6 C106.36,84.66 108.44,86.94 111.36,86.94 C114.04,86.94 116.36,85.12 116.36,80.6 C116.36,76.08 114.02,74.3 111.36,74.3 C108.44,74.3 106.36,76.54 106.36,80.6 L106.36,80.6 Z" id="形状"></path>
                <path d="M130.61,75.03 C127.84,75.03 126.45,76.58 126.45,80.47 L126.45,89.78 L123.45,89.78 L123.45,72.02 L126.38,72.02 L126.38,75.12 C127.254118,73.147144 129.222413,71.8874351 131.38,71.92 C131.676353,71.9007071 131.973647,71.9007071 132.27,71.92 L132.27,75.12 C131.718631,75.060872 131.16453,75.0308303 130.61,75.03 Z" id="路径"></path>
                <path d="M145.52,78.85 L145.52,78.42 C145.52,75.19 143.7,74.1 141.52,74.1 C139.05,74.1 137.6,75.45 137.46,77.63 L134.36,77.63 C134.66,73.8 138.02,71.63 141.49,71.63 C146.37,71.63 148.59,73.97 148.55,78.96 L148.55,83.05 C148.475579,85.2931566 148.629707,87.5380626 149.01,89.75 L146.01,89.75 C145.880694,88.9422732 145.800546,88.1274409 145.77,87.31 C144.69,89.12 142.84,90.18 139.7,90.18 C136.37,90.18 133.6,88.33 133.6,85.06 C133.52,80.9 138.2,79.68 145.52,78.85 Z M136.84,85.03 C136.84,86.71 138.13,87.83 140.27,87.83 C143.08,87.83 145.75,86.54 145.75,82.35 L145.75,81.23 C140.27,81.79 136.81,82.54 136.81,85.03 L136.84,85.03 Z" id="形状"></path>
                <path d="M161.23,71.72 C165.52,71.72 167.07,74.5 167.07,78.56 L167.07,89.78 L164.07,89.78 L164.07,79.45 C164.07,76.71 163.61,74.33 160.17,74.33 C157.27,74.33 155.49,76.33 155.49,80.14 L155.49,89.78 L152.49,89.78 L152.49,72.02 L155.49,72.02 L155.49,74.69 C156.69198,72.6987143 158.910216,71.550951 161.23,71.72 Z" id="路径"></path>
                <path d="M174.82,67.54 L174.82,71.99 L178.19,71.99 L178.19,74.4 L174.82,74.4 L174.82,84.93 C174.82,86.78 174.95,87.24 176.67,87.24 L178.19,87.24 L178.19,89.75 L176.01,89.75 C172.61,89.75 171.82,88.99 171.82,85.29 L171.82,74.43 L169.01,74.43 L169.01,72.02 L171.82,72.02 L171.82,67.54 L174.82,67.54 Z" id="路径"></path>
                <path d="M187.08,74.27 C185.33,74.27 183.35,74.89 183.35,76.51 C183.35,77.93 184.35,78.59 186.06,78.92 L188.57,79.41 C191.8,80.04 194.64,81.26 194.64,84.7 C194.64,88.14 191.47,90.21 187.41,90.21 C182.76,90.21 180.12,87.14 179.79,84.04 L182.96,84.04 C183.236733,86.2734383 185.239475,87.8818352 187.48,87.67 C189.75,87.67 191.6,86.67 191.6,85.03 C191.6,83.39 189.92,82.48 188,82.09 L185.36,81.56 C182.96,81.06 180.36,79.94 180.36,76.64 C180.36,73.51 183.53,71.69 187.46,71.69 C191.39,71.69 193.9,73.84 194.46,77.2 L191.32,77.2 C190.81,75.09 189.16,74.27 187.08,74.27 Z" id="路径"></path>
                <path d="M209.12,74.83 C210.311813,72.777103 212.560765,71.5732752 214.93,71.72 C218.99,71.72 222.52,75.12 222.52,80.97 C222.52,86.82 218.99,90.21 214.93,90.21 C212.559726,90.3614956 210.308419,89.1564068 209.12,87.1 L209.12,95.54 L206.12,95.54 L206.12,72.02 L209.12,72.02 L209.12,74.83 Z M219.26,80.97 C219.26,76.74 217.26,74.3 214.17,74.3 C211.5,74.3 208.99,76.3 208.99,80.97 C208.99,85.64 211.5,87.63 214.17,87.63 C217.24,87.63 219.26,85.19 219.26,80.97 L219.26,80.97 Z" id="形状"></path>
                <path d="M232.86,75.03 C230.09,75.03 228.7,76.58 228.7,80.47 L228.7,89.78 L225.7,89.78 L225.7,72.02 L228.64,72.02 L228.64,75.12 C229.509889,73.1435193 231.480893,71.8820772 233.64,71.92 C233.936353,71.9007071 234.233647,71.9007071 234.53,71.92 L234.53,75.12 C233.975343,75.0601609 233.417875,75.0301178 232.86,75.03 L232.86,75.03 Z" id="路径"></path>
                <path d="M244.18,90.21 C240.05,90.21 235.66,87.4 235.66,80.97 C235.66,74.54 240.05,71.72 244.18,71.72 C248.31,71.72 252.69,74.53 252.69,80.97 C252.69,87.41 248.3,90.21 244.18,90.21 Z M249.49,80.97 C249.49,76.25 246.88,74.36 244.18,74.36 C241.48,74.36 238.86,76.11 238.86,80.97 C238.86,85.83 241.47,87.57 244.18,87.57 C246.89,87.57 249.52,85.54 249.52,80.97 L249.49,80.97 Z" id="形状"></path>
                <path d="M271,72.02 L271,87.4 C271,91.03 270.34,92.52 269.32,93.64 C267.702882,95.2633051 265.467332,96.1152901 263.18,95.98 C259.18,95.98 256.45,94.13 255.88,90.54 L259.09,90.54 C259.48,92.12 260.44,93.34 263.21,93.34 C264.552888,93.4378971 265.873662,92.9576158 266.84,92.02 C267.5,91.33 268,90.5 268,88.09 L268,86.41 C266.870289,88.4413222 264.668995,89.6374235 262.35,89.48 C258.43,89.48 254.83,86.31 254.83,80.6 C254.83,74.89 258.43,71.72 262.35,71.72 C264.677747,71.5702917 266.881295,72.7832181 268,74.83 L268,72.02 L271,72.02 Z M258.1,80.6 C258.1,84.66 260.17,86.94 263.1,86.94 C265.78,86.94 268.1,85.12 268.1,80.6 C268.1,76.08 265.76,74.3 263.1,74.3 C260.17,74.3 258.1,76.54 258.1,80.6 L258.1,80.6 Z" id="形状"></path>
                <path d="M282.35,75.03 C279.58,75.03 278.19,76.58 278.19,80.47 L278.19,89.78 L275.19,89.78 L275.19,72.02 L278.12,72.02 L278.12,75.12 C278.992009,73.1453356 280.961654,71.8847633 283.12,71.92 C283.416353,71.9007071 283.713647,71.9007071 284.01,71.92 L284.01,75.12 C283.4586,75.0612545 282.904519,75.031214 282.35,75.03 Z" id="路径"></path>
                <path d="M297.23,78.85 L297.23,78.42 C297.23,75.19 295.41,74.1 293.23,74.1 C290.76,74.1 289.3,75.45 289.17,77.63 L286.07,77.63 C286.37,73.8 289.73,71.63 293.2,71.63 C298.08,71.63 300.29,73.97 300.26,78.96 L300.26,83.05 C300.185579,85.2931566 300.339707,87.5380626 300.72,89.75 L297.72,89.75 C297.594788,88.9419755 297.517984,88.1271894 297.49,87.31 C296.4,89.12 294.56,90.18 291.42,90.18 C288.09,90.18 285.31,88.33 285.31,85.06 C285.21,80.9 289.93,79.68 297.23,78.85 Z M288.52,85.03 C288.52,86.71 289.8,87.83 291.95,87.83 C294.76,87.83 297.43,86.54 297.43,82.35 L297.43,81.23 C292.01,81.79 288.52,82.54 288.52,85.03 Z" id="形状"></path>
                <path d="M304.22,89.78 L304.22,72.02 L307.22,72.02 L307.22,74.69 C308.297522,72.7686736 310.358575,71.6107788 312.56,71.69 C315.27,71.69 316.89,72.88 317.68,74.83 C318.9679,72.7784449 321.260249,71.5787822 323.68,71.69 C327.81,71.69 329.42,74.47 329.42,78.53 L329.42,89.75 L326.42,89.75 L326.42,79.45 C326.42,76.71 325.89,74.33 322.63,74.33 C320.05,74.33 318.33,76.33 318.33,80.14 L318.33,89.78 L315.33,89.78 L315.33,79.45 C315.33,76.71 314.8,74.33 311.54,74.33 C308.96,74.33 307.25,76.33 307.25,80.14 L307.25,89.78 L304.22,89.78 Z" id="路径"></path>
            </g>
        </g>
    </g>
</svg>